<?xml version="1.0" encoding="utf-8"?>
<!-- Generator: Adobe Illustrator 28.1.0, SVG Export Plug-In . SVG Version: 6.00 Build 0)  -->
<svg version="1.1" id="Layer_1" xmlns="http://www.w3.org/2000/svg" xmlns:xlink="http://www.w3.org/1999/xlink" x="0px" y="0px"
	 viewBox="0 0 20 20" style="enable-background:new 0 0 20 20;" xml:space="preserve">
<g>
	<path d="M4,6.8C3,5.8,2.1,4.9,1.2,4C0.3,3.1,0.3,1.9,1.1,1.1c0.8-0.8,2-0.8,2.9,0.1c1.9,1.9,3.8,3.8,5.6,5.6c0.3,0.3,0.5,0.3,0.8,0
		c1.9-1.9,3.8-3.8,5.7-5.7c0.6-0.6,1.3-0.7,2-0.4c0.7,0.3,1.2,0.8,1.3,1.6c0.1,0.7-0.2,1.3-0.7,1.8c-1.9,1.9-3.7,3.7-5.6,5.6
		c-0.3,0.3-0.3,0.5,0,0.8c1.9,1.9,3.8,3.8,5.7,5.7c0.7,0.7,0.8,1.6,0.3,2.4c-0.5,0.7-1.4,1.1-2.2,0.8c-0.4-0.1-0.7-0.3-1-0.6
		c-1.9-1.9-3.7-3.7-5.6-5.6c-0.3-0.3-0.5-0.3-0.8,0c-1.9,1.9-3.8,3.8-5.7,5.7c-0.6,0.6-1.3,0.8-2.1,0.5c-0.8-0.3-1.2-0.8-1.3-1.6
		c-0.1-0.7,0.2-1.2,0.7-1.7c1.9-1.9,3.7-3.7,5.6-5.6c0.3-0.3,0.3-0.5,0-0.8C5.8,8.7,4.9,7.7,4,6.8z"/>
</g>
</svg>
