<?xml version="1.0" encoding="utf-8"?>
<!-- Generator: Adobe Illustrator 28.1.0, SVG Export Plug-In . SVG Version: 6.00 Build 0)  -->
<svg version="1.1" id="Layer_1" xmlns="http://www.w3.org/2000/svg" xmlns:xlink="http://www.w3.org/1999/xlink" x="0px" y="0px"
	 viewBox="0 0 20 20" style="enable-background:new 0 0 20 20;" xml:space="preserve">
<path d="M10,19.4c-1.5,0-2.9,0-4.4,0c-0.7,0-0.9-0.3-0.8-0.9c0.5-2.5,2.5-4.3,5.1-4.3c2.4-0.1,4.6,1.6,5.2,4c0,0,0,0.1,0,0.1
	c0.2,0.9,0,1.2-0.9,1.2C12.8,19.3,11.4,19.4,10,19.4z M10,7.1c-1.6,0-2.9,1.3-3,2.9c0,1.6,1.3,2.9,2.9,3c1.6,0,2.9-1.3,3-2.9
	C13,8.4,11.7,7.1,10,7.1z M9.4,3.2c0,0.5,0,1,0,1.5c0,0.4,0.3,0.6,0.6,0.6c0.3,0,0.6-0.2,0.6-0.6c0-0.5,0-0.9,0-1.4
	c0-0.2,0-0.4,0.1-0.7c0.4,0.4,0.8,0.8,1.1,1.2c0.3,0.3,0.7,0.4,0.9,0.1C13,3.7,13,3.4,12.6,3c-0.7-0.7-1.4-1.4-2.1-2.1
	c-0.4-0.4-0.7-0.4-1,0C8.8,1.6,8.1,2.3,7.4,3C7,3.4,7,3.7,7.3,4c0.3,0.2,0.6,0.2,0.9-0.1c0.4-0.4,0.7-0.8,1.1-1.2
	C9.4,2.9,9.4,3,9.4,3.2z M3.3,8.7c0.3-0.3,0.3-0.6,0-0.8c-0.2-0.2-0.6-0.3-0.8,0C1.7,8.6,1,9.4,0.2,10.2c-0.3,0.3-0.3,0.6,0,0.9
	c0.8,0.8,1.5,1.6,2.3,2.3c0.3,0.3,0.6,0.2,0.9,0c0.2-0.2,0.2-0.6-0.1-0.8c-0.4-0.4-0.8-0.8-1.3-1.2c0,0,0.1-0.1,0.1-0.1
	c0.6,0,1.2,0,1.8,0c0.5,0,0.8-0.2,0.8-0.6c0-0.4-0.3-0.6-0.8-0.6c-0.6,0-1.2,0-1.9,0C2.5,9.5,2.9,9.1,3.3,8.7z M17.9,11.3
	c-0.4,0.4-0.8,0.8-1.3,1.2c-0.3,0.3-0.3,0.6,0,0.9c0.2,0.2,0.6,0.2,0.9,0c0.8-0.7,1.5-1.5,2.3-2.3c0.3-0.3,0.3-0.6,0-0.9
	c-0.3-0.3-0.5-0.5-0.8-0.8c-0.5-0.5-1-1-1.5-1.5c-0.2-0.2-0.4-0.3-0.7-0.1c-0.2,0.1-0.3,0.3-0.3,0.6c0,0.2,0.1,0.3,0.3,0.5
	c0.4,0.4,0.8,0.8,1.2,1.2c-0.7,0-1.4,0-2,0c-0.4,0-0.7,0.2-0.7,0.6c0,0.3,0.3,0.6,0.7,0.6c0.6,0,1.2,0,1.9,0
	C17.9,11.2,17.9,11.2,17.9,11.3z"/>
</svg>
