<?xml version="1.0" encoding="utf-8"?>
<!-- Generator: Adobe Illustrator 28.1.0, SVG Export Plug-In . SVG Version: 6.00 Build 0)  -->
<svg version="1.1" id="Layer_1" xmlns="http://www.w3.org/2000/svg" xmlns:xlink="http://www.w3.org/1999/xlink" x="0px" y="0px"
	 viewBox="0 0 20 20" style="enable-background:new 0 0 20 20;" xml:space="preserve">
<g>
	<path d="M4.8,11.6c-1,0-2.1,0-3.1,0c-1,0-1.7-0.7-1.7-1.6c0-0.9,0.7-1.6,1.7-1.6c2.1,0,4.2,0,6.3,0c0.4,0,0.4-0.1,0.4-0.4
		c0-2.1,0-4.3,0-6.4c0-0.6,0.3-1.1,0.9-1.4c0.6-0.3,1.1-0.2,1.6,0.2c0.4,0.3,0.6,0.8,0.6,1.4c0,2.1,0,4.2,0,6.3
		c0,0.4,0.1,0.5,0.5,0.5c2.1,0,4.3,0,6.4,0c0.8,0,1.3,0.5,1.5,1.2c0.2,0.7-0.2,1.4-0.8,1.7c-0.3,0.2-0.6,0.2-0.9,0.2
		c-2.1,0-4.2,0-6.3,0c-0.4,0-0.4,0.1-0.4,0.4c0,2.1,0,4.3,0,6.4c0,0.7-0.3,1.1-0.9,1.4C10.1,20.1,9.5,20,9,19.6
		c-0.4-0.3-0.6-0.8-0.6-1.3c0-2.1,0-4.2,0-6.3c0-0.4-0.1-0.5-0.5-0.5C6.9,11.6,5.9,11.6,4.8,11.6z"/>
</g>
</svg>
