<?xml version="1.0" encoding="utf-8"?>
<!-- Generator: Adobe Illustrator 28.1.0, SVG Export Plug-In . SVG Version: 6.00 Build 0)  -->
<svg version="1.1" id="Layer_1" xmlns="http://www.w3.org/2000/svg" xmlns:xlink="http://www.w3.org/1999/xlink" x="0px" y="0px"
	 viewBox="0 0 20 20" style="enable-background:new 0 0 20 20;" xml:space="preserve">
<path d="M7.7,20c-1.7,0-3.3-0.1-5,0c-1.8,0.1-2.8-0.8-2.7-2.7c0-0.6,0-1.3,0.3-1.9c0.7-1.9,2.1-3.2,4.1-3.4c2.2-0.2,4.4-0.2,6.5,0
	c2.5,0.2,4.3,2.3,4.4,4.8c0,0.3,0,0.6,0,0.9c0,1.3-0.8,2.2-2.2,2.2C11.3,20,9.5,20,7.7,20z M12.8,5.1c0-2.8-2.3-5.2-5.1-5.1
	C4.8,0,2.5,2.3,2.5,5.1c0,2.8,2.3,5.1,5.2,5.1C10.5,10.3,12.8,8,12.8,5.1z M18.2,6.5c0.1-2.2-1.6-4.1-3.8-4.3
	c-0.6,0-0.7,0.1-0.5,0.7c0.4,1.2,0.5,2.5,0.2,3.8c-0.2,1-0.7,1.8-1.3,2.6c-0.4,0.5-0.3,0.8,0.4,1c0.3,0.1,0.6,0.1,0.9,0.1
	C16.3,10.4,18.2,8.6,18.2,6.5z M18.2,17.8c0.2,0,0.5,0,0.7,0c0.6,0,1-0.4,1-1c0-0.7,0.1-1.4,0-2.1c-0.1-0.8-0.4-1.4-1-2
	c-0.9-0.9-2.1-1.1-3.3-1c-0.5,0-0.7,0.6-0.4,1c1,1.3,1.5,2.8,1.5,4.4c0,0.3,0.2,0.5,0.5,0.5C17.6,17.8,17.9,17.8,18.2,17.8
	C18.2,17.8,18.2,17.8,18.2,17.8z"/>
</svg>
