<?xml version="1.0" encoding="utf-8"?>
<!-- Generator: Adobe Illustrator 28.1.0, SVG Export Plug-In . SVG Version: 6.00 Build 0)  -->
<svg version="1.1" id="Layer_1" xmlns="http://www.w3.org/2000/svg" xmlns:xlink="http://www.w3.org/1999/xlink" x="0px" y="0px"
	 viewBox="0 0 20 20" style="enable-background:new 0 0 20 20;" xml:space="preserve">
<g>
	<path d="M20,10c0,5.5-4.4,9.9-9.9,10c-5.3,0.1-10-4.4-10-9.9C0,4.6,4.5,0,10,0C15.5,0,20.1,4.5,20,10z M11.9,10.1
		C11.9,10.1,11.9,10.2,11.9,10.1c0.1,0.1,0.2,0.1,0.2,0.1c2.5,0.7,3.7,2.4,4.2,4.8c0,0.1-0.1,0.3,0.1,0.3c0.1,0,0.2-0.1,0.2-0.2
		c1.4-1.9,2-4,1.7-6.3c-0.6-4.6-5-7.9-9.6-7.2C2.4,2.5-0.6,10,3.3,15.1c0.1,0.1,0.1,0.3,0.3,0.3c0.1-0.1,0.1-0.2,0.1-0.3
		c0.4-2.5,1.7-4.2,4.2-4.9c0.4-0.1,0.2-0.2,0.1-0.4c-1-1-1.5-2.1-1.5-3.5c0-1.6,1.1-3,2.7-3.4c1.5-0.4,3.2,0.3,4,1.7
		c0.9,1.5,0.5,3.7-0.9,5.1C12.1,9.8,12,9.9,11.9,10.1z"/>
</g>
</svg>
