<svg width="33" height="35" viewBox="0 0 33 35" fill="none" xmlns="http://www.w3.org/2000/svg">
<path d="M18.7103 34.5682C14.6903 34.6182 10.7703 34.7582 6.90034 34.0382C3.42034 33.3882 0.770338 30.3782 0.430338 26.8482C-0.149662 20.8182 -0.0996616 14.7782 0.320338 8.72822C0.550338 5.32822 1.98034 2.72822 5.10034 1.18822C6.17034 0.658225 7.35034 0.508225 8.53034 0.388225C13.5903 -0.111775 18.6603 -0.211775 23.7003 0.588225C27.9103 1.24822 30.2003 5.02822 30.4003 8.07823C30.6503 11.8682 30.8003 15.6582 30.7503 19.4982C25.6403 17.0282 21.0303 17.5482 17.6703 22.2982C14.7303 26.4482 15.4703 30.6582 18.7203 34.5782L18.7103 34.5682ZM15.3603 12.3782C16.4303 12.3782 17.5003 12.3782 18.5703 12.3782C20.0303 12.3782 21.4803 12.3982 22.9403 12.3582C23.8303 12.3382 24.4703 11.5982 24.4603 10.7482C24.4503 9.91823 23.8303 9.24823 22.9703 9.16823C22.7203 9.14822 22.4703 9.14822 22.2203 9.14822C18.4903 9.14822 14.7603 9.14822 11.0303 9.14822C9.98034 9.14822 8.94034 9.12823 7.89034 9.15823C7.00034 9.18822 6.37034 9.80823 6.31034 10.6382C6.24034 11.6382 6.95034 12.3582 8.06034 12.3682C10.4903 12.3782 12.9303 12.3682 15.3603 12.3682V12.3782ZM12.2003 19.3282C13.5803 19.3282 14.9703 19.3382 16.3503 19.3282C17.4003 19.3182 18.0703 18.6682 18.0703 17.7182C18.0703 16.7782 17.3903 16.1182 16.3403 16.1182C13.5903 16.0982 10.8503 16.1082 8.10034 16.1182C7.05034 16.1182 6.35034 16.7782 6.33034 17.6982C6.31034 18.6482 7.03034 19.3282 8.11034 19.3382C9.47034 19.3482 10.8303 19.3382 12.2003 19.3382V19.3282Z" fill="#6993FF"/>
<path d="M32.83 27.7083C32.83 31.7683 29.54 35.0183 25.47 34.9983C21.47 34.9783 18.2 31.6783 18.21 27.6583C18.22 23.6183 21.52 20.3583 25.59 20.3783C29.61 20.3983 32.84 23.6583 32.83 27.7083ZM24.5 25.5283C24.5 26.2783 24.49 27.0283 24.5 27.7783C24.52 28.3583 24.8 28.7283 25.42 28.7283C26.4 28.7283 27.38 28.7283 28.35 28.7283C28.88 28.7283 29.23 28.4683 29.25 27.9183C29.27 27.3283 28.92 27.0483 28.36 27.0283C27.86 27.0083 27.36 26.9883 26.86 27.0283C26.33 27.0783 26.21 26.8583 26.23 26.3683C26.27 25.3683 26.25 24.3683 26.23 23.3683C26.23 22.7483 25.88 22.3483 25.38 22.3383C24.88 22.3383 24.51 22.7283 24.5 23.3383C24.48 24.0683 24.5 24.7983 24.5 25.5183V25.5283Z" fill="white"/>
</svg>
