<svg width="36" height="35" viewBox="0 0 36 35" fill="none" xmlns="http://www.w3.org/2000/svg">
<path d="M35.025 7.9C35.025 9.7 35.025 11.4 35.025 13.2C35.025 13.7 34.925 14.2 34.425 14.5C33.925 14.8 33.525 14.6 33.125 14.3C32.125 13.6 31.025 12.9 30.025 12.2C29.525 11.8 29.025 11.7 28.325 11.7C25.725 11.7 23.025 11.7 20.425 11.7C18.525 11.7 17.525 10.7 17.525 8.8C17.525 6.8 17.525 4.8 17.525 2.8C17.525 1.1 18.525 0 20.325 0C24.325 0 28.325 0 32.325 0C34.025 0 35.025 1.1 35.025 2.7C35.025 4.5 35.025 6.2 35.025 7.9ZM8.725 2.9C10.625 2.9 12.625 2.9 14.525 2.9C15.125 2.9 15.425 3 15.325 3.7C15.225 5.4 15.325 7.2 15.325 8.9C15.325 10.6 16.025 12 17.425 13C17.825 13.3 17.725 13.4 17.425 13.7C16.625 14.3 15.725 14.6 14.725 14.6C12.025 14.6 9.425 14.6 6.725 14.6C6.125 14.6 5.525 14.8 5.025 15.1C4.025 15.8 2.925 16.5 1.925 17.2C1.525 17.5 1.125 17.6 0.625 17.4C0.125 17.1 0.025 16.7 0.025 16.2C0.025 12.7 0.025 9.1 0.025 5.6C0.025 4 1.125 2.9 2.725 2.9C4.725 2.9 6.725 2.9 8.725 2.9ZM8.025 35C5.925 35 3.725 35 1.625 35C0.325 35 0.025 34.7 0.025 33.4C0.025 32.6 -0.075 31.7 0.125 30.9C0.525 29 2.025 27.7 3.925 27.7C6.725 27.7 9.425 27.7 12.225 27.7C14.325 27.7 16.025 29.4 16.125 31.5C16.125 32.2 16.125 33 16.125 33.7C16.125 34.6 15.725 34.9 14.825 35C12.525 35 10.325 35 8.025 35ZM26.925 35C24.725 35 22.525 35 20.325 35C19.325 35 18.925 34.6 18.925 33.6C18.925 32.9 18.925 32.2 18.925 31.5C19.025 29.5 20.625 27.8 22.725 27.7C25.525 27.7 28.325 27.6 31.225 27.7C33.325 27.7 34.925 29.5 35.025 31.6C35.025 32.3 35.025 33 35.025 33.7C35.025 34.6 34.625 35 33.725 35C31.425 35 29.225 35 26.925 35ZM3.725 21.8C3.725 19.4 5.725 17.4 8.125 17.5C10.525 17.5 12.425 19.5 12.425 21.9C12.425 24.3 10.425 26.3 8.025 26.3C5.625 26.2 3.725 24.3 3.725 21.8ZM31.325 21.9C31.325 24.3 29.425 26.3 26.925 26.3C24.525 26.3 22.525 24.3 22.525 21.9C22.525 19.5 24.525 17.6 26.825 17.5C29.425 17.5 31.325 19.4 31.325 21.9Z" fill="white"/>
</svg>
