<svg width="20" height="20" viewBox="0 0 20 20" fill="none" xmlns="http://www.w3.org/2000/svg">
                                    <path d="M0.000234375 9.39006C0.000234375 8.38006 0.000234375 7.38006 0.000234375 6.37006C0.000234375 5.59006 0.350234 5.20006 1.12023 5.23006C1.60023 5.25006 1.74023 5.10006 1.70023 4.63006C1.67023 4.11006 1.68023 3.59006 1.73023 3.08006C1.94023 1.23006 3.52023 -0.0799442 5.42023 5.57969e-05C7.19023 0.0800558 8.63023 1.56006 8.69023 3.37006C8.71023 3.87006 8.70023 4.38006 8.69023 4.88006C8.69023 5.13006 8.78023 5.21006 9.03023 5.22006C10.2202 5.29006 10.4102 5.49006 10.4102 6.70006C10.4102 8.26006 10.4102 9.82006 10.4102 11.3701C10.4102 11.7001 10.3302 11.8401 9.98023 11.8101C9.56023 11.7801 9.14023 11.8101 8.71023 11.8101C7.52023 11.8101 6.58023 12.3001 5.93023 13.3101C5.79023 13.5301 5.65023 13.6101 5.39023 13.6101C3.98023 13.6001 2.57023 13.6101 1.15023 13.6101C0.330234 13.6101 -0.00976562 13.2601 -0.00976562 12.4601C-0.00976562 11.4401 -0.00976562 10.4201 -0.00976562 9.39006H0.000234375ZM5.16023 5.22006C5.71023 5.22006 6.26023 5.22006 6.82023 5.22006C7.06023 5.22006 7.18023 5.15006 7.17023 4.89006C7.16023 4.40006 7.18023 3.92006 7.16023 3.43006C7.10023 2.33006 6.27023 1.54006 5.20023 1.54006C4.14023 1.54006 3.31023 2.35006 3.25023 3.45006C3.23023 3.92006 3.25023 4.39006 3.24023 4.86006C3.23023 5.14006 3.34023 5.23006 3.61023 5.22006C4.13023 5.21006 4.65023 5.22006 5.17023 5.22006H5.16023ZM5.23023 7.22006C4.75023 7.23006 4.40023 7.43006 4.19023 7.85006C4.00023 8.24006 3.97023 8.71006 4.29023 8.99006C4.72023 9.36006 4.68023 9.80006 4.68023 10.2601C4.68023 10.5201 4.68023 10.7801 4.68023 11.0401C4.68023 11.3801 4.84023 11.6101 5.20023 11.6201C5.56023 11.6201 5.72023 11.3901 5.74023 11.0601C5.76023 10.6701 5.76023 10.2801 5.74023 9.89006C5.73023 9.59006 5.78023 9.36006 6.03023 9.13006C6.38023 8.81006 6.44023 8.37006 6.24023 7.92006C6.04023 7.48006 5.69023 7.26006 5.23023 7.24006V7.22006ZM9.28023 19.9701C9.28023 19.3401 9.25023 18.7101 9.28023 18.0901C9.31023 17.6001 9.19023 17.4301 8.66023 17.4401C7.31023 17.4601 6.23023 16.4501 6.14023 15.1701C6.04023 13.7701 7.11024 12.5301 8.52024 12.5101C11.2502 12.4801 13.9702 12.4801 16.7002 12.5101C18.0702 12.5201 19.1102 13.6401 19.1102 15.0001C19.1102 16.3501 18.0402 17.4301 16.6602 17.4501C15.1302 17.4701 13.6102 17.4801 12.0802 17.4501C11.6202 17.4501 11.3402 17.5801 11.0702 17.9401C10.5302 18.6501 9.95023 19.3201 9.38023 20.0101C9.34023 20.0001 9.30023 19.9901 9.27024 19.9801L9.28023 19.9701ZM13.0002 15.6001C13.2602 15.7201 13.5102 15.8901 13.6902 15.6201C13.9102 15.2801 13.5502 15.1601 13.3602 14.9601C13.6002 14.8201 13.8802 14.6801 13.7002 14.3601C13.5202 14.0301 13.2502 14.2801 13.0002 14.3301C12.9202 14.1001 13.0202 13.7501 12.6302 13.7501C12.2502 13.7501 12.3102 14.0801 12.2502 14.3301C12.0102 14.2801 11.7502 14.0401 11.5602 14.3601C11.3502 14.7001 11.7402 14.8001 11.8802 15.0001C11.6902 15.1701 11.3902 15.2701 11.5502 15.5801C11.7302 15.9301 12.0202 15.7001 12.2602 15.6401C12.3102 15.9201 12.2702 16.2401 12.6602 16.2201C13.0202 16.2001 12.9402 15.8901 13.0002 15.6101V15.6001ZM9.67023 14.3301C9.60023 14.0701 9.66023 13.7701 9.32023 13.7401C8.90023 13.7101 9.00023 14.0901 8.92023 14.3201C8.66023 14.2501 8.39023 14.0301 8.22023 14.3601C8.05023 14.6801 8.36023 14.8001 8.57023 14.9801C8.36023 15.1301 8.06024 15.2601 8.22023 15.5801C8.40024 15.9401 8.70023 15.6501 8.94023 15.6401C8.99023 15.8801 8.92023 16.1901 9.28023 16.2101C9.68023 16.2301 9.60023 15.8601 9.70023 15.6101C9.94023 15.7301 10.1802 15.8901 10.3702 15.6101C10.5902 15.2601 10.2002 15.1701 10.0602 14.9701C10.2402 14.7801 10.5802 14.6801 10.3702 14.3401C10.1902 14.0501 9.95023 14.2301 9.69023 14.3301H9.67023ZM15.2302 14.9701C15.0802 15.1601 14.7202 15.2401 14.9002 15.5801C15.0802 15.9201 15.3402 15.6901 15.5802 15.6401C15.6002 15.6901 15.6302 15.7401 15.6302 15.7801C15.6502 16.0001 15.7002 16.2101 15.9902 16.2101C16.2502 16.2101 16.3002 16.0201 16.3202 15.8101C16.3402 15.5201 16.5002 15.6801 16.6202 15.7201C16.7702 15.7801 16.9102 15.7701 17.0202 15.6501C17.1102 15.5501 17.1502 15.4101 17.0702 15.2901C16.9802 15.1701 16.8602 15.0701 16.7502 14.9501C16.7802 14.9201 16.8202 14.8801 16.8602 14.8601C17.0402 14.7501 17.1802 14.6101 17.0802 14.3901C16.9702 14.1301 16.7602 14.1501 16.5502 14.2601C16.2902 14.4001 16.3402 14.1801 16.3202 14.0601C16.2902 13.8801 16.2102 13.7501 16.0202 13.7401C15.8602 13.7301 15.7002 13.8001 15.6902 13.9601C15.6702 14.3301 15.5102 14.3201 15.2402 14.1901C15.1202 14.1401 14.9902 14.2201 14.9202 14.3501C14.8402 14.4801 14.8502 14.6101 14.9502 14.7101C15.0302 14.8001 15.1402 14.8801 15.2502 14.9601L15.2302 14.9701Z" fill="white"></path>
                                </svg>