<svg width="36" height="36" viewBox="0 0 36 36" fill="none" xmlns="http://www.w3.org/2000/svg">
<path d="M10.8844 7.78725C10.1944 6.63725 9.86444 5.53725 10.1344 4.32725C10.5044 2.67725 11.4844 1.53725 13.0944 1.01725C14.7444 0.487251 16.2244 0.887251 17.4744 2.06725C17.7644 2.33725 17.9044 2.49725 18.2944 2.12725C20.0044 0.507251 22.2844 0.347251 24.0244 1.67725C25.8144 3.03725 26.2444 5.26725 25.1444 7.38725C25.0944 7.47725 25.0544 7.57725 24.9544 7.77725C26.2044 7.77725 27.3644 7.77725 28.5244 7.77725C30.0544 7.77725 31.5844 7.76725 33.1144 7.77725C34.7144 7.79725 35.7644 8.84725 35.8044 10.4573C35.8244 11.4673 35.8044 12.4773 35.8044 13.4873C35.8044 15.5273 34.8244 16.5073 32.8044 16.5073C27.5644 16.5073 22.3244 16.5073 17.0844 16.5073C12.4144 16.5073 7.74444 16.5073 3.08444 16.5073C0.954444 16.5073 0.00444444 15.5573 0.00444444 13.4073C0.00444444 12.4473 -0.00555556 11.4973 0.00444444 10.5373C0.0344444 8.83725 1.08444 7.78725 2.78444 7.77725C5.43444 7.76725 8.07444 7.77725 10.8744 7.77725L10.8844 7.78725ZM20.3744 7.77725C20.7844 7.77725 21.1944 7.80725 21.6044 7.77725C22.9544 7.66725 23.9844 6.57725 24.0044 5.22725C24.0244 3.83725 23.0044 2.68725 21.6444 2.55725C20.3044 2.43725 19.1044 3.33725 18.8644 4.67725C18.7744 5.15725 18.7844 5.65725 18.7844 6.14725C18.7844 7.78725 18.7844 7.78725 20.3844 7.77725H20.3744ZM15.2744 7.78725C15.7744 7.78725 16.1844 7.78725 16.5944 7.78725C16.8944 7.78725 17.0644 7.70725 17.0444 7.37725C17.0044 6.44725 17.1444 5.51725 16.9544 4.59725C16.6844 3.35725 15.6044 2.51725 14.3444 2.54725C13.1044 2.57725 12.0144 3.53725 11.8444 4.72725C11.6644 6.04725 12.3644 7.19725 13.5844 7.62725C14.1744 7.83725 14.7744 7.74725 15.2744 7.76725V7.78725ZM12.95 19.8842C12.95 18.5842 13.09 18.7842 11.89 18.7842C8.56 18.7742 5.81444 18.8042 2.48444 18.7542C1.83444 18.7542 1.72444 18.9342 1.72444 19.5242C1.74444 24.1042 1.72444 28.1873 1.73444 32.7673C1.73444 34.7072 2.79444 35.7573 4.72444 35.7573C7.34444 35.7673 9.38 35.7373 12 35.7773C12.73 35.7873 12.98 35.6273 12.97 34.8473C12.92 32.2273 12.95 29.6073 12.95 26.9873C12.95 24.4473 12.95 22.4142 12.95 19.8842ZM22.87 35.0173C22.87 35.4673 22.87 35.7873 23.5 35.7873C26.31 35.7573 28.5344 35.7972 31.3444 35.7673C32.9844 35.7472 34.0744 34.6673 34.0844 33.0273C34.1144 28.3073 34.0844 24.0942 34.1044 19.3742C34.1044 18.9342 34.0044 18.7642 33.5144 18.7742C30.0244 18.8042 27.11 18.8142 23.62 18.7742C22.97 18.7742 22.86 18.9942 22.87 19.5642C22.9 22.2142 22.88 24.3472 22.88 26.9972C22.88 29.6672 22.88 32.3472 22.88 35.0173H22.87Z" fill="#6993FF"/>
<rect x="15" y="18.7842" width="6" height="17" rx="1" fill="white"/>
</svg>
