<svg width="15" height="15" viewBox="0 0 15 15" fill="none" xmlns="http://www.w3.org/2000/svg" style="width: 15px; height: 15px;">
                                            <path fill-rule="evenodd" clip-rule="evenodd" d="M14.3455 11.1785C15.2182 12.0512 15.2182 13.4654 14.3455 14.338C13.8942 14.7894 13.3225 15 12.7508 15C12.179 15 11.6073 14.7894 11.156 14.338L7.48495 10.667L3.81394 14.338C3.39268 14.7894 2.79087 15 2.21916 15C1.64744 15 1.07573 14.7894 0.654463 14.338C-0.218154 13.4654 -0.218154 12.0512 0.654463 11.1785L4.32548 7.50752L0.654463 3.83651C-0.218154 2.96389 -0.218154 1.54965 0.654463 0.677031C1.52708 -0.225677 2.94132 -0.225677 3.81394 0.677031L7.48495 4.34804L11.156 0.677031C12.0286 -0.225677 13.4729 -0.225677 14.3455 0.677031C15.2182 1.54965 15.2182 2.96389 14.3455 3.83651L10.6745 7.50752L14.3455 11.1785Z" fill="white"/>
                                        </svg>  