<svg width="30" height="35" viewBox="0 0 30 35" fill="none" xmlns="http://www.w3.org/2000/svg">
<path d="M14.4019 35C10.5502 35 6.69856 35 2.84689 35C1.00478 35 0 33.9952 0 32.1531C0 27.0455 0 21.8541 0 16.7464C0 15.9928 0 15.9928 0.669856 16.3277C1.50718 16.7464 2.42823 16.8301 3.34928 16.8301C10.8852 16.8301 18.5048 16.8301 26.0407 16.8301C27.0455 16.8301 27.0455 16.8301 27.1292 17.9187C27.1292 19.0072 27.1292 20.0957 27.1292 21.1842C27.1292 21.6866 26.9617 21.8541 26.4593 21.8541C25.7057 21.8541 25.0359 21.7703 24.2823 21.9378C22.4402 22.3565 21.0167 24.0311 21.0167 25.8732C21.0167 27.799 22.4402 29.4737 24.366 29.8086C25.0359 29.8923 25.7057 29.8923 26.3756 29.8923C26.9617 29.8923 27.2129 30.0598 27.2129 30.6459C27.2129 31.8182 27.2129 32.9904 27.2129 34.1627C27.2129 34.7488 27.0455 34.9163 26.3756 34.9163C22.3565 35 18.4211 35 14.4019 35ZM8.20574 30.6459C6.7823 30.6459 5.44258 30.6459 4.01914 30.6459C3.43301 30.6459 3.09809 30.9809 3.26555 31.4833C3.43301 31.9019 3.76794 31.9856 4.1866 31.9856C6.86603 31.9856 9.54545 31.9856 12.1411 31.9856C12.6435 31.9856 13.1459 31.9019 13.1459 31.3158C13.1459 30.7297 12.6435 30.7297 12.2249 30.7297C10.8014 30.6459 9.46172 30.6459 8.20574 30.6459ZM12.811 0C16.8301 0 20.0957 3.26555 20.0957 7.36842C20.0957 11.3876 16.6627 14.7368 12.7273 14.6531C8.70813 14.5694 5.44258 11.3038 5.44258 7.28469C5.44258 3.18182 8.70813 0 12.811 0ZM12.1411 6.19617C12.1411 7.20096 12.1411 8.12201 12.1411 9.12679C12.1411 9.29426 12.2249 9.46172 11.9737 9.54545C11.8062 9.54545 11.7225 9.46172 11.6388 9.37799C11.1364 8.8756 10.634 8.37321 10.1316 7.87081C9.79665 7.53588 9.46172 7.36842 9.04306 7.78708C8.70813 8.20574 8.8756 8.54067 9.12679 8.8756C10.1316 9.88038 11.1364 10.8852 12.1411 11.8899C12.5598 12.3086 12.8947 12.3086 13.3134 11.8899C14.3182 10.8852 15.4067 9.79665 16.4115 8.79187C16.7464 8.45694 16.8301 8.12201 16.4952 7.78708C16.1603 7.36842 15.7416 7.53588 15.4067 7.87081C14.988 8.28947 14.5694 8.70813 14.067 9.12679C13.8995 9.29426 13.7321 9.62918 13.4809 9.46172C13.2297 9.37799 13.3971 9.04306 13.3971 8.79187C13.3971 6.94976 13.3971 5.19139 13.3971 3.34928C13.3971 2.84689 13.2297 2.42823 12.7273 2.42823C12.2249 2.42823 12.0574 2.84689 12.0574 3.34928C12.1411 4.27034 12.1411 5.19139 12.1411 6.19617ZM29.3062 23.9474C29.3062 23.5287 29.1388 23.3612 28.7201 23.3612C27.4641 23.3612 26.1244 23.3612 24.8684 23.3612C23.5287 23.3612 22.4402 24.5335 22.4402 25.9569C22.4402 27.3804 23.5287 28.5526 24.8684 28.5526C26.1244 28.5526 27.4641 28.5526 28.7201 28.5526C29.2225 28.5526 29.39 28.3014 29.3062 27.8828C29.3062 27.2129 29.3062 26.5431 29.3062 25.8732C29.3062 25.2871 29.3062 24.6172 29.3062 23.9474ZM5.35885 11.6388C4.77273 10.299 3.85167 10.1316 2.67943 10.2153C1.08852 10.299 0 11.3876 0 12.8947C0 14.4019 1.08852 15.4904 2.67943 15.4904C4.689 15.4904 6.7823 15.4904 8.79187 15.4904C8.95933 15.4904 9.21053 15.5742 9.46172 15.323C7.70335 14.4856 6.11244 13.3971 5.35885 11.6388ZM16.3278 15.4904C18.5885 15.4904 20.7656 15.4904 23.0263 15.4904C23.445 15.4904 23.5287 15.2392 23.5287 14.9043C23.5287 13.9833 23.5287 13.0622 23.5287 12.1411C23.5287 9.96411 23.8636 10.299 21.6029 10.299C21.1005 10.299 20.8493 10.4665 20.6818 10.8852C19.9282 12.5598 18.756 13.8995 17.1651 14.8206C16.8301 14.988 16.4952 15.1555 16.0766 15.4067C16.244 15.4067 16.3278 15.4904 16.3278 15.4904Z" fill="white"/>
</svg>
