<svg width="20" height="18" viewBox="0 0 20 18" fill="none" xmlns="http://www.w3.org/2000/svg">
                                    <path fill-rule="evenodd" clip-rule="evenodd" d="M14.939 0C16.28 0 17.57 0.53 18.519 1.481C19.469 2.43 20 3.71 20 5.05V12.95C20 15.74 17.73 18 14.939 18H5.06C2.269 18 0 15.74 0 12.95V5.05C0 2.26 2.259 0 5.06 0H14.939ZM16.5298 6.54006L16.6098 6.46006C16.8488 6.17006 16.8488 5.75006 16.5988 5.46006C16.4598 5.31106 16.2688 5.22006 16.0698 5.20006C15.8598 5.18906 15.6598 5.26006 15.5088 5.40006L10.9998 9.00006C10.4198 9.48106 9.58878 9.48106 8.99978 9.00006L4.49978 5.40006C4.18878 5.17006 3.75878 5.20006 3.49978 5.47006C3.22978 5.74006 3.19978 6.17006 3.42878 6.47006L3.55978 6.60006L8.10978 10.1501C8.66978 10.5901 9.34878 10.8301 10.0598 10.8301C10.7688 10.8301 11.4598 10.5901 12.0188 10.1501L16.5298 6.54006Z" fill="white"></path>
                                </svg>