<svg width="35" height="35" viewBox="0 0 35 35" fill="none" xmlns="http://www.w3.org/2000/svg">
<path d="M24.1 27.3C24.1 29.2 24.1 31.1 24.1 33.1C24.1 34.6 23.7 35 22.2 35C19 35 15.8 35 12.6 35C11.3 35 10.8 34.6 10.8 33.2C10.8 29.3 10.8 25.3 10.8 21.4C10.8 20 11.2 19.6 12.6 19.6C15.8 19.6 19.1 19.6 22.3 19.6C23.6 19.6 24 20 24 21.3C24.1 23.3 24.1 25.3 24.1 27.3ZM12.2 11.8C12 13.2 11.7 14.5 11.5 15.9C11.4 16.5 11.5 16.9 12 17.3C12.4 17.7 12.9 17.6 13.3 17.3C14.5 16.7 15.7 16.1 16.9 15.4C17.3 15.2 17.7 15.2 18.1 15.4C19.3 16.1 20.5 16.7 21.7 17.3C22.2 17.6 22.8 17.6 23.3 17.3C23.8 17 23.8 16.5 23.7 15.9C23.5 14.6 23.3 13.3 23 12.1C22.9 11.5 23 11.1 23.5 10.6C24.4 9.7 25.3 8.8 26.2 7.9C26.6 7.5 26.8 7.1 26.6 6.5C26.4 5.9 26 5.7 25.5 5.7C24.2 5.5 22.9 5.3 21.7 5.1C21.1 5 20.7 4.8 20.4 4.2C19.9 3 19.3 1.9 18.7 0.8C18.5 0.3 18.1 0 17.6 0C17 0 16.7 0.3 16.4 0.8C15.8 1.9 15.3 3.1 14.7 4.2C14.4 4.8 14.1 5 13.5 5.1C12.2 5.3 10.9 5.5 9.7 5.7C9.1 5.8 8.7 6 8.5 6.6C8.3 7.2 8.6 7.6 9 8C10 8.9 10.9 9.7 11.9 10.6C12.1 10.8 12.4 11 12.4 11.4C12.2 11.5 12.2 11.6 12.2 11.8ZM8.9 25.4C8.9 24.9 8.7 24.7 8.2 24.7C5.9 24.7 3.7 24.7 1.4 24.7C0.5 24.7 0 25.2 0 26.1C0 28.6 0 31.1 0 33.6C0 34.5 0.5 35 1.4 35C2 35 2.7 35 3.3 35C5 35 6.6 35 8.3 35C8.6 35 9 35 9 34.5C8.8 32.9 9 31.3 8.9 30C8.9 28.2 8.9 26.8 8.9 25.4ZM33.3 35C34.5 35 34.9 34.5 34.9 33.4C34.9 31.5 34.9 29.6 34.9 27.7C34.9 26.6 34.5 26.1 33.3 26.1C31.5 26.1 29.6 26.1 27.8 26.1C26 26.1 26 26.1 26 27.9C26 30.1 26.1 32.3 25.9 34.5C26 35 26.3 35 26.6 35C27.8 35 28.9 35 30.1 35C31.2 35 32.3 35 33.3 35Z" fill="white"/>
</svg>
