<svg width="36" height="35" viewBox="0 0 36 35" fill="none" xmlns="http://www.w3.org/2000/svg">
<path d="M7.22899 35C5.42383 35 3.71896 35 1.9138 35C0.710363 35 0.00835721 34.298 0.00835721 33.0946C-0.0919293 31.1891 0.710363 29.9857 2.41523 29.0831C5.92526 27.2779 9.23472 27.4785 12.6445 29.384C13.9482 30.1862 14.7505 31.8911 14.3493 33.4957C14.1488 34.4986 13.547 35 12.5442 35C10.739 35 8.93386 35 7.22899 35ZM33.2032 35C34.2061 35 34.9081 34.4986 35.0084 33.596C35.2089 32.0917 34.9081 30.3868 33.2032 29.384C29.5929 27.2779 26.0829 27.2779 22.5728 29.384C21.1688 30.1862 20.4668 31.8911 20.7677 33.3954C20.9682 34.3983 21.57 34.8997 22.6731 34.8997C24.4783 34.8997 26.1831 34.8997 27.9883 34.8997C29.6932 35 31.4983 35 33.2032 35ZM22.7734 15.8453H22.8737C23.7763 15.8453 24.4783 15.3438 24.5786 14.5415C24.8794 13.0372 24.5786 11.2321 22.8737 10.2292C19.4639 8.22349 16.1545 8.12321 12.6445 9.92837C11.0399 10.7307 10.2376 12.0344 10.3379 13.8395C10.4382 15.1433 11.0399 15.745 12.3436 15.745C14.0485 15.745 15.7533 15.745 17.4582 15.745C19.2634 15.8453 20.9682 15.8453 22.7734 15.8453ZM21.57 3.91117C21.57 1.70487 19.7648 0 17.6588 0C15.4525 0 13.6473 1.80516 13.6473 4.01146C13.6473 6.21776 15.4525 8.02292 17.6588 8.02292C19.7648 7.82235 21.57 6.11748 21.57 3.91117ZM27.888 27.0774C29.994 27.0774 31.8995 25.3725 31.8995 23.1662C31.9998 21.0602 30.1946 19.1547 27.9883 19.1547C25.782 19.0544 23.9768 20.7593 23.8765 23.0659C23.8765 25.1719 25.6817 26.9771 27.888 27.0774ZM7.22899 19.0544C5.02268 19.0544 3.21753 20.7593 3.21753 22.9656C3.21753 25.1719 5.02268 26.9771 7.22899 26.9771C9.43529 26.9771 11.2404 25.1719 11.2404 23.0659C11.1402 20.8596 9.43529 19.0544 7.22899 19.0544ZM18.3608 18.553C18.3608 17.851 18.0599 17.4499 17.5585 17.4499C16.9568 17.5501 16.7562 17.9513 16.7562 18.553C16.7562 19.7564 16.7562 20.9599 16.7562 22.063C16.7562 22.4642 16.6559 22.765 16.3551 22.9656C15.3522 23.7679 14.3493 24.5702 13.3465 25.3725C12.7447 25.8739 12.6445 26.2751 12.9453 26.6762C13.2462 27.0774 13.7476 27.0774 14.3493 26.5759C15.2519 25.8739 16.2548 25.0716 17.1574 24.3696C17.4582 24.0688 17.7591 24.0688 18.0599 24.3696C18.9625 25.1719 19.8651 25.8739 20.868 26.5759C21.4697 27.0774 21.8708 27.0774 22.272 26.6762C22.5728 26.2751 22.4725 25.8739 21.8708 25.3725C21.2691 24.8711 20.7677 24.3696 20.1659 23.9685C18.7619 23.0659 17.9596 22.063 18.4611 20.5587C18.3608 19.7564 18.3608 19.1547 18.3608 18.553Z" fill="white"/>
</svg>
