<svg width="17" height="20" viewBox="0 0 17 20" fill="none" xmlns="http://www.w3.org/2000/svg">
                                                            <path d="M8.12 7.18422C10.32 7.18422 12.53 7.18422 14.73 7.18422C15.25 7.18422 15.3 7.26422 15.26 7.77422C15.21 8.44422 15.18 9.11422 15.15 9.79422C15.02 12.6142 14.89 15.4342 14.75 18.2542C14.7 19.2142 13.89 19.9942 12.94 20.0042C9.73 20.0042 6.51 20.0142 3.3 20.0042C2.35 20.0042 1.54 19.2142 1.49 18.2542C1.4 16.5242 1.33 14.7842 1.25 13.0542C1.16 11.2542 1.07 9.46422 0.97 7.66422C0.95 7.27422 1.03 7.18422 1.48 7.18422C3.7 7.18422 5.91 7.18422 8.13 7.18422H8.12ZM4.41 12.8142C4.41 14.0442 4.41 15.2742 4.41 16.5042C4.41 17.1142 4.62 17.4342 5 17.4342C5.39 17.4342 5.59 17.1142 5.59 16.5042C5.59 14.0442 5.59 11.5742 5.59 9.11422C5.59 8.97422 5.59 8.82422 5.56 8.69422C5.5 8.39422 5.3 8.19422 4.99 8.20422C4.68 8.20422 4.49 8.40422 4.43 8.70422C4.4 8.84422 4.4 8.98422 4.4 9.13422C4.4 10.3642 4.4 11.5942 4.4 12.8242L4.41 12.8142ZM7.52 12.8142C7.52 14.0442 7.52 15.2742 7.52 16.5042C7.52 17.1142 7.73 17.4342 8.11 17.4342C8.5 17.4342 8.7 17.1142 8.7 16.5042C8.7 14.0442 8.7 11.5742 8.7 9.11422C8.7 8.97422 8.7 8.82422 8.67 8.69422C8.61 8.39422 8.41 8.19422 8.1 8.20422C7.79 8.20422 7.6 8.40422 7.54 8.70422C7.51 8.84422 7.51 8.98422 7.51 9.13422C7.51 10.3642 7.51 11.5942 7.51 12.8242L7.52 12.8142ZM10.63 12.8142C10.63 14.0442 10.63 15.2742 10.63 16.5042C10.63 17.1142 10.84 17.4342 11.22 17.4342C11.61 17.4342 11.81 17.1142 11.81 16.5042C11.81 14.0442 11.81 11.5742 11.81 9.11422C11.81 8.97422 11.81 8.82422 11.78 8.69422C11.72 8.39422 11.52 8.19422 11.22 8.19422C10.91 8.19422 10.72 8.38422 10.65 8.68422C10.62 8.82422 10.62 8.96422 10.62 9.10422C10.62 10.3342 10.62 11.5642 10.62 12.7942L10.63 12.8142ZM8.12 5.99422C5.7 5.99422 3.27 5.99422 0.85 5.99422C0.19 5.99422 0 5.79422 0 5.13422C0 4.78422 0 4.43422 0 4.08422C0.01 3.17422 0.66 2.52422 1.58 2.51422C2.57 2.51422 3.55 2.50422 4.54 2.51422C4.87 2.51422 5.03 2.43422 4.99 2.08422C4.83 0.994223 5.79 -0.0757773 7.04 0.00422273C7.81 0.0542227 8.6 0.00422273 9.37 0.0142227C10.44 0.0142227 11.23 0.814223 11.25 1.88422C11.25 1.97422 11.25 2.06422 11.25 2.15422C11.22 2.43422 11.35 2.51422 11.61 2.51422C12.6 2.50422 13.58 2.51422 14.57 2.51422C15.59 2.51422 16.22 3.14422 16.23 4.15422C16.23 4.44422 16.23 4.72422 16.23 5.01422C16.23 5.84422 16.08 5.99422 15.27 5.99422C12.88 5.99422 10.5 5.99422 8.11 5.99422H8.12ZM8.14 1.32422C7.75 1.32422 7.36 1.31422 6.98 1.32422C6.45 1.34422 6.12 1.84422 6.28 2.34422C6.32 2.46422 6.4 2.50422 6.51 2.50422C7.57 2.50422 8.63 2.50422 9.69 2.50422C9.82 2.50422 9.91 2.47422 9.94 2.32422C10.08 1.77422 9.76 1.33422 9.18 1.32422C8.83 1.32422 8.48 1.32422 8.13 1.32422H8.14Z" fill="#F05151"/>
                                                        </svg> 