<svg width="35" height="35" viewBox="0 0 35 35" fill="none" xmlns="http://www.w3.org/2000/svg">
<path d="M34.9 12.9C34.9 15.1 34.9 17.3 34.9 19.4C34.9 20.7 34.4 21.5 33.1 22C32.6 22.2 32.5 22.4 32.5 22.9C32.5 23.4 32.5 24 32.5 24.5C32.5 25.2 32 25.7 31.3 25.7C30.6 25.7 30.2 25.2 30.1 24.6C30.1 24.4 30.1 24.2 30.1 24C30.1 23 30.2 22.2 28.9 21.8C28.1 21.6 27.8 20.7 27.8 19.8C27.8 15.2 27.8 10.6 27.8 5.9C27.8 4.8 28.4 4 29.5 3.7C30 3.5 30.2 3.2 30.2 2.7C30.2 2.2 30.2 1.7 30.2 1.2C30.2 0.5 30.7 0 31.4 0C32.1 0 32.6 0.5 32.6 1.2C32.6 1.8 32.6 2.3 32.6 2.9C32.6 3.3 32.7 3.5 33.1 3.7C34.3 4 34.9 5 34.9 6.3C34.9 8.5 34.9 10.7 34.9 12.9ZM16.3 13C16.3 12.1 16 11.2 15.1 10.9C13.8 10.5 13.9 9.6 13.9 8.7C13.9 8.5 13.9 8.4 13.9 8.2C13.9 7.5 13.4 7 12.7 7C12 7 11.5 7.5 11.5 8.2C11.5 8.7 11.5 9.2 11.5 9.7C11.5 10.2 11.4 10.5 10.9 10.7C9.9 11 9.2 11.8 9.2 12.9C9.2 16.7 9.2 20.6 9.2 24.4C9.2 25.3 9.6 26.1 10.3 26.4C11.6 26.8 11.5 27.7 11.5 28.6C11.5 28.8 11.5 28.9 11.5 29.1C11.5 29.8 12 30.3 12.7 30.3C13.4 30.3 13.9 29.8 13.9 29.1C13.9 28.6 13.9 28.1 13.9 27.6C13.9 27.2 14 26.9 14.5 26.7C15.7 26.2 16.3 25.4 16.3 24.1C16.3 22.3 16.3 20.5 16.3 18.7C16.3 16.8 16.3 14.9 16.3 13ZM18.5 27.8C18.5 28.7 18.8 29.6 19.7 29.9C20.9 30.3 20.9 31.2 20.9 32.1C20.9 32.3 20.9 32.4 20.9 32.6C20.9 33.3 21.4 33.8 22.1 33.8C22.8 33.8 23.3 33.3 23.3 32.6C23.3 32 23.3 31.5 23.3 30.9C23.3 30.5 23.4 30.3 23.8 30.2C25.1 29.7 25.7 28.8 25.7 27.4C25.7 24.2 25.7 21.1 25.7 17.9C25.7 16.5 25.2 15.7 23.9 15.2C23.5 15 23.4 14.8 23.4 14.5C23.4 13.9 23.4 13.4 23.4 12.8C23.4 12.1 22.9 11.6 22.2 11.6C21.5 11.6 21 12.1 21 12.8C21 13.3 21 13.9 21 14.4C21 14.9 20.9 15.1 20.4 15.2C19.2 15.7 18.6 16.5 18.6 17.8C18.6 19.4 18.6 21 18.6 22.6C18.5 24.4 18.5 26.1 18.5 27.8ZM7 22.6C7 21.3 6.4 20.3 5.2 19.9C4.8 19.8 4.7 19.5 4.7 19.2C4.7 18.6 4.7 18 4.7 17.5C4.7 16.8 4.2 16.4 3.5 16.4C2.8 16.4 2.4 16.8 2.3 17.5C2.3 18 2.3 18.5 2.3 19C2.3 19.6 2.2 19.9 1.6 20.1C0.6 20.5 0 21.3 0 22.4C0 24.7 0 26.9 0 29.2C0 30.1 0.4 30.9 1.1 31.2C2.4 31.6 2.3 32.5 2.3 33.4C2.3 33.6 2.3 33.8 2.3 34C2.3 34.5 2.8 35 3.4 35C4.1 35 4.6 34.6 4.6 33.9C4.6 33.4 4.6 32.8 4.6 32.3C4.6 31.8 4.8 31.6 5.2 31.4C6.3 31 6.9 30.1 6.9 28.9C6.9 27.8 6.9 26.8 6.9 25.7C7 24.6 7 23.6 7 22.6Z" fill="white"/>
</svg>
