<svg width="17" height="20" viewBox="0 0 17 20" fill="none" xmlns="http://www.w3.org/2000/svg">
                                    <path d="M8.5865 20C8.46267 20.001 8.33885 19.9715 8.2281 19.9137L4.627 18.0505C3.60415 17.52 2.8048 16.9258 2.18062 16.2335C0.814477 14.7194 0.0553951 12.7759 0.0423075 10.7597L2.44719e-05 4.12397C-0.00400248 3.35812 0.4893 2.67071 1.22825 2.41281L7.84051 0.106429C8.23314 -0.0328175 8.67107 -0.0357593 9.07074 0.0995643L15.7082 2.32652C16.4511 2.57461 16.9535 3.25711 16.9575 4.02199L16.9998 10.6626C17.0129 12.6758 16.279 14.6282 14.935 16.158C14.3169 16.8601 13.5246 17.4632 12.5128 18.0025L8.9449 19.9098C8.83315 19.9686 8.71033 19.999 8.5865 20Z" fill="white"></path>
                                </svg>