<svg width="32" height="35" viewBox="0 0 32 35" fill="none" xmlns="http://www.w3.org/2000/svg">
<path d="M9.29688 30.7161C8.38542 30.7161 7.5651 30.7161 6.65365 30.7161C6.19792 30.7161 5.92448 30.625 5.74219 30.1693C5.46875 29.4401 4.83073 28.8932 4.19271 28.3464C2.91667 27.1615 1.64063 25.8854 0.638021 24.3359C0.182292 23.6979 0 22.9687 0 22.1484C0 18.8672 0.0911458 15.6771 0.455729 12.487C0.546875 11.6667 0.729167 10.8464 1.1849 10.1172C1.45833 9.66146 1.82292 9.29688 2.46094 9.38802C3.09896 9.47917 3.46354 9.84375 3.64583 10.3906C3.82813 10.8464 3.91927 11.3021 3.91927 11.849C3.91927 14.2187 3.82812 16.4974 4.19271 18.8672C4.19271 19.1406 4.19271 19.3229 4.01042 19.5052C3.28125 20.0521 3.3724 20.8724 3.64583 21.6016C4.10156 22.6042 4.73958 23.4245 5.5599 24.1536C5.74219 24.3359 5.92448 24.5182 6.19792 24.3359C6.38021 24.1536 6.19792 23.9714 6.10677 23.7891C5.74219 23.4245 5.46875 23.0599 5.10417 22.6953C4.73958 22.3307 4.55729 21.875 4.28385 21.4193C4.10156 20.8724 4.01042 20.4167 4.375 19.9609C4.73958 19.5052 5.28646 19.5052 5.83333 19.5964C6.65365 19.7786 7.38281 20.2344 8.02083 20.6901C8.93229 21.3281 9.7526 22.0573 10.5729 22.7865C11.7578 23.8802 12.487 25.1562 12.5781 26.7969C12.6693 27.7995 12.6693 28.8932 12.7604 29.8958C12.7604 30.5339 12.487 30.8073 11.849 30.8073C11.0286 30.7161 10.1172 30.7161 9.29688 30.7161ZM25.3385 30.7161C25.612 30.7161 25.9766 30.7161 26.0677 30.3516C26.4323 29.5312 27.0703 28.9844 27.7083 28.3464C28.8021 27.3438 29.8958 26.25 30.8073 25.0651C31.5365 24.0625 31.901 22.9687 31.901 21.6927C31.901 18.8672 31.8099 16.1328 31.6276 13.3073C31.5365 12.1224 31.3542 10.9375 30.7161 9.9349C30.4427 9.47917 30.0781 9.11458 29.5313 9.20573C28.8932 9.20573 28.5286 9.57031 28.3464 10.1172C28.1641 10.5729 28.0729 11.0286 28.0729 11.5755C28.0729 13.4896 28.1641 15.3125 27.9818 17.2266C27.8906 18.138 27.6172 19.0495 28.4375 19.7786C28.7109 20.0521 28.6198 20.599 28.5286 20.9635C28.1641 22.3307 27.2526 23.2422 26.3411 24.1536C26.25 24.2448 26.0677 24.3359 25.8854 24.1536C25.7031 24.0625 25.7943 23.8802 25.8854 23.6979C25.9766 23.5156 26.1589 23.3333 26.3411 23.2422C26.888 22.6042 27.526 21.9661 27.7995 21.1458C27.9818 20.599 27.9818 20.1432 27.6172 19.7786C27.2526 19.3229 26.7969 19.3229 26.25 19.4141C25.7943 19.5052 25.3385 19.6875 24.974 19.9609C23.2422 20.9635 21.7839 22.2396 20.5078 23.6979C20.1432 24.0625 19.9609 24.5182 19.7786 24.974C19.2318 26.6146 19.2318 28.3464 19.3229 29.987C19.3229 30.4427 19.5964 30.625 20.0521 30.625C20.9635 30.625 21.875 30.625 22.7865 30.625C23.5156 30.7161 24.4271 30.7161 25.3385 30.7161ZM11.9401 35C14.0365 35 14.1276 34.9089 14.1276 32.8125C14.1276 31.7188 13.763 31.3542 12.6693 31.3542C10.7552 31.3542 8.84115 31.3542 6.83594 31.3542C4.64844 31.3542 4.46615 31.5365 4.55729 33.724C4.55729 34.6354 4.92188 35 5.83333 35C7.01823 35 8.20313 35 9.38802 35C10.2083 35 11.1198 35 11.9401 35ZM25.1563 35C27.3438 35 27.4349 34.9089 27.3438 32.8125C27.3438 31.8099 26.9792 31.3542 25.9766 31.3542C23.6979 31.3542 21.4193 31.3542 19.1406 31.3542C18.138 31.3542 17.7734 31.7188 17.7734 32.7214C17.7734 33.0859 17.7734 33.4505 17.7734 33.8151C17.7734 34.6354 18.138 35 18.9583 35C20.1432 35 21.3281 35 22.513 35C23.4245 35 24.2448 35 25.1563 35ZM18.138 22.3307C20.3255 22.3307 20.0521 22.6953 20.0521 20.4167C20.0521 19.2318 19.5052 18.5026 18.5026 18.0469C18.2292 17.8646 17.9557 17.8646 17.6823 18.138C16.4974 18.8672 15.4036 18.8672 14.2188 18.138C13.9453 17.9557 13.763 17.9557 13.4896 18.0469C12.5781 18.4115 11.849 19.3229 11.7578 20.3255C11.7578 20.7812 11.7578 21.3281 11.7578 21.7839C11.7578 22.3307 11.9401 22.513 12.487 22.513C13.5807 22.513 14.7656 22.513 15.8594 22.513C16.6797 22.3307 17.4089 22.4219 18.138 22.3307ZM17.6823 9.11458C18.138 9.11458 18.4115 9.02344 18.5938 8.56771C18.776 8.11198 19.1406 7.65625 19.5964 7.38281C20.3255 7.01823 20.1432 6.47135 19.8698 5.92448C19.5964 5.3776 19.1406 5.01302 18.5938 4.73958C18.3203 4.55729 18.0469 4.55729 17.7734 4.73958C16.5885 5.46875 15.4948 5.46875 14.3099 4.73958C14.0365 4.55729 13.763 4.55729 13.4896 4.64844C13.0339 4.92187 12.5781 5.19531 12.3047 5.65104C11.849 6.38021 11.849 6.74479 12.5781 7.29167C12.7604 7.47396 13.0339 7.65625 13.125 7.83854C13.4896 9.11458 14.4922 9.11458 15.5859 9.02344C15.7682 9.02344 15.9505 9.02344 16.1328 9.02344C16.4974 9.11458 17.0443 9.11458 17.6823 9.11458ZM12.3958 16.5885C12.7604 16.5885 13.0339 16.4974 12.9427 16.0417C12.7604 15.0391 13.125 14.1276 13.8542 13.3984C13.9453 13.3073 14.1276 13.125 14.0365 12.9427C13.763 12.3958 12.7604 12.0312 12.3047 12.3047C11.1198 13.0339 10.026 13.0339 8.93229 12.3047C8.75 12.1224 8.47656 12.0312 8.20312 12.1224C7.20052 12.487 6.47135 13.3984 6.38021 14.401C6.38021 14.9479 6.38021 15.4036 6.38021 15.9505C6.38021 16.4062 6.5625 16.5885 7.01823 16.5885C7.92969 16.5885 8.75 16.5885 9.66146 16.5885C10.5729 16.5885 11.4844 16.5885 12.3958 16.5885ZM22.1484 16.5885C22.6953 16.5885 23.151 16.5885 23.6979 16.5885C25.7031 16.5885 25.4297 16.862 25.4297 14.8568C25.4297 13.763 24.974 12.9427 24.0625 12.3958C23.6979 12.1224 23.3333 12.1224 22.8776 12.3958C21.875 13.0339 20.7813 13.125 19.7786 12.487C19.1406 12.0312 18.6849 12.3047 18.138 12.6693C17.7734 12.9427 17.6823 13.125 18.0469 13.5807C18.6849 14.3099 19.0495 15.1302 18.8672 16.1328C18.776 16.5885 18.9583 16.6797 19.4141 16.6797C20.4167 16.5885 21.237 16.5885 22.1484 16.5885ZM16.0417 13.2161C14.7656 13.2161 13.6719 14.2188 13.6719 15.4948C13.6719 16.7708 14.6745 17.8646 15.9505 17.9557C17.2266 17.9557 18.3203 16.9531 18.3203 15.6771C18.3203 14.3099 17.3177 13.2161 16.0417 13.2161ZM10.5729 12.1224C11.849 12.1224 12.9427 11.0286 12.9427 9.7526C12.9427 8.47656 11.9401 7.38281 10.6641 7.38281C9.29688 7.38281 8.20312 8.47656 8.20312 9.7526C8.20312 11.0286 9.29688 12.1224 10.5729 12.1224ZM21.3281 7.38281C20.0521 7.38281 19.0495 8.47656 19.0495 9.7526C19.0495 11.0286 20.1432 12.1224 21.4193 12.1224C22.6953 12.1224 23.6979 11.0286 23.6979 9.7526C23.6979 8.47656 22.6042 7.38281 21.3281 7.38281ZM18.2292 2.36979C18.2292 1.0026 17.2266 0 15.9505 0C14.5833 0 13.5807 1.0026 13.5807 2.27865C13.5807 3.64583 14.5833 4.64844 15.8594 4.64844C17.2266 4.64844 18.2292 3.64583 18.2292 2.36979Z" fill="white"/>
</svg>
