<svg width="38" height="35" viewBox="0 0 38 35" fill="none" xmlns="http://www.w3.org/2000/svg">
<path d="M19.1635 34.9516C16.8769 34.9516 14.5904 34.9516 12.4127 34.9516C10.7795 34.9516 10.1262 34.2983 10.0173 32.7739C9.79952 29.2897 11.1061 26.5676 14.046 24.6077C14.4815 24.281 14.917 24.281 15.4615 24.6077C17.8569 26.3498 20.4701 26.2409 22.9744 24.6077C23.41 24.281 23.7366 24.281 24.1721 24.6077C27.0031 26.2409 28.7453 29.7252 28.3097 32.9917C28.2008 34.2983 27.4386 34.9516 26.132 34.9516C23.7366 35.0605 21.4501 34.9516 19.1635 34.9516ZM16.5503 12.0861C17.2036 11.7594 17.748 11.3239 18.2924 10.8884C18.728 10.5617 19.0546 10.5617 19.4902 10.8884C19.9257 11.3239 20.4701 11.6505 21.0145 11.9772C21.5589 12.4127 22.2122 12.5216 22.8655 12.0861C23.5188 11.6505 23.5188 10.9972 23.41 10.3439C23.1922 9.69063 22.9744 9.03733 22.7567 8.38403C22.6478 7.9485 22.6478 7.73073 22.9744 7.51296C23.5188 7.07743 24.0633 6.75078 24.6077 6.31525C25.1521 5.87971 25.4787 5.44418 25.261 4.68199C25.0432 3.91981 24.4988 3.59316 23.8455 3.59316C23.3011 3.59316 22.7567 3.59316 22.2122 3.59316C21.4501 3.70204 21.0145 3.48427 20.9056 2.72209C20.7968 2.28655 20.579 1.85102 20.4701 1.41549C20.2523 0.653301 19.9257 0 18.9457 0C18.0747 0 17.6391 0.653301 17.4214 1.41549C17.3125 1.85102 17.0947 2.28655 16.9858 2.72209C16.8769 3.37539 16.4414 3.59316 15.7881 3.59316C15.1348 3.59316 14.5904 3.59316 13.9371 3.59316C13.2838 3.59316 12.7394 3.91981 12.5216 4.68199C12.3038 5.33529 12.6305 5.87971 13.1749 6.31525C13.6104 6.6419 14.1549 7.07743 14.5904 7.2952C15.1348 7.62185 15.2437 7.9485 15.0259 8.6018C14.6993 9.36398 14.4815 10.1262 14.3726 10.7795C14.4815 12.0861 15.5703 12.7394 16.5503 12.0861ZM11.4328 24.8254C12.4127 24.8254 13.066 24.281 13.1749 23.41C13.3927 21.1234 12.7394 19.0546 10.7795 17.5302C10.4528 17.2036 10.1262 17.2036 9.79952 17.5302C7.73073 19.1635 5.44418 19.1635 3.37539 17.6391C2.93986 17.3125 2.6132 17.3125 2.17767 17.6391C0.762185 18.8368 0 20.3612 0 22.2122C0 24.4988 0.326651 24.8254 2.6132 24.8254C3.91981 24.8254 5.22641 24.8254 6.64189 24.8254C8.05738 24.8254 9.69063 24.8254 11.4328 24.8254ZM36.1493 24.8254C37.1293 24.8254 37.7826 24.281 37.8915 23.5188C38.1092 21.2323 37.6737 19.1635 35.8227 17.6391C35.3871 17.2036 34.9516 17.2036 34.4072 17.6391C32.4473 19.1635 29.943 19.1635 28.0919 17.6391C27.5475 17.2036 27.3298 17.3125 26.8942 17.6391C25.261 19.0546 24.4988 20.7968 24.6077 22.9744C24.6077 24.281 25.261 24.8254 26.5676 24.8254C28.2008 24.8254 29.7252 24.8254 31.3585 24.8254C32.9917 24.8254 34.5161 24.8254 36.1493 24.8254ZM24.281 19.599C24.281 16.7681 21.9945 14.4815 19.0546 14.5904C16.3325 14.5904 13.9371 16.9858 13.9371 19.7079C13.9371 22.6478 16.2236 24.7166 19.0546 24.7166C22.1034 24.7166 24.281 22.5389 24.281 19.599ZM10.3439 13.8282C10.3439 11.6505 8.71068 10.0173 6.53301 10.0173C4.35534 10.0173 2.72209 11.5417 2.72209 13.8282C2.72209 16.1148 4.24646 17.6391 6.42413 17.6391C8.71068 17.5302 10.3439 16.0059 10.3439 13.8282ZM35.1694 13.8282C35.1694 11.6505 33.645 10.0173 31.4673 10.0173C29.2897 10.0173 27.6564 11.6505 27.6564 13.8282C27.6564 16.0059 29.2897 17.6391 31.4673 17.6391C33.5361 17.5302 35.0605 16.0059 35.1694 13.8282Z" fill="white"/>
</svg>
