<svg width="20" height="20" viewBox="0 0 20 20" fill="none" xmlns="http://www.w3.org/2000/svg">
                                    <path d="M8.44985 13.9763C8.75985 15.3763 9.21985 16.6563 9.94985 17.8363C9.99985 17.9163 10.1399 17.9563 10.2499 17.9663C10.5299 17.9863 10.8199 17.9663 11.1099 17.9863C11.6399 18.0363 12.0299 18.4663 12.0299 18.9763C12.0299 19.4863 11.6399 19.9363 11.1199 19.9663C8.05985 20.1363 5.29985 19.3463 3.09985 17.1463C0.259852 14.3163 -0.690148 10.8863 0.499852 7.04632C1.69985 3.20632 4.39985 0.856321 8.35985 0.156321C13.8999 -0.833679 19.0899 2.98632 19.8999 8.56632C20.0199 9.36632 19.9599 10.1963 19.9299 11.0163C19.9099 11.6163 19.4199 11.9863 18.8499 11.9363C18.2899 11.8863 17.9599 11.4263 17.9499 10.8163C17.9399 9.94632 17.8599 9.08632 17.8099 8.21632C17.8099 8.14632 17.7599 8.07632 17.7199 7.99632H14.0099C14.0099 8.68632 14.0099 9.35632 14.0099 10.0263C14.0099 10.4763 13.7199 10.8163 13.2899 10.9363C12.8899 11.0563 12.4499 10.9263 12.2199 10.5663C12.1099 10.3863 12.0399 10.1563 12.0199 9.94632C11.9799 9.49632 11.9799 9.03632 11.9599 8.58632C11.9499 8.39632 11.9199 8.20632 11.8899 7.97632C11.4499 7.97632 11.0399 7.97632 10.6199 7.97632C9.89985 7.97632 9.18985 7.98632 8.46985 7.97632C8.19985 7.97632 8.05985 8.03632 8.05985 8.33632C8.05985 9.43632 8.05985 10.5463 8.05985 11.6463C8.05985 11.9263 8.17985 11.9963 8.43985 11.9863C8.94985 11.9663 9.44985 11.9763 9.95985 11.9863C10.5699 11.9963 10.9999 12.4163 11.0099 12.9663C11.0099 13.5363 10.5699 13.9663 9.94985 13.9663C9.45985 13.9663 8.96985 13.9663 8.42985 13.9663L8.44985 13.9763ZM6.05985 8.01632C6.05985 8.01632 5.99985 7.98632 5.95985 7.98632C4.81985 7.98632 3.67985 7.98632 2.52985 7.97632C2.28985 7.97632 2.25985 8.10632 2.21985 8.28632C1.97985 9.41632 1.97985 10.5463 2.21985 11.6863C2.26985 11.9263 2.37985 11.9963 2.61985 11.9963C3.21985 11.9763 3.80985 11.9963 4.40985 11.9963C4.96985 11.9963 5.51985 11.9963 6.05985 11.9963V8.02632V8.01632ZM13.6999 5.96632H16.9199C15.8599 4.22632 14.4299 3.06632 12.5699 2.41632C12.9499 3.61632 13.3199 4.78632 13.6999 5.96632ZM6.32985 5.97632C6.70985 4.77632 7.07985 3.61632 7.44985 2.42632C5.59985 3.08632 4.16985 4.24632 3.11985 5.97632H6.32985ZM7.41985 17.5363C7.08985 16.4063 6.76985 15.3063 6.42985 14.2063C6.39985 14.1063 6.22985 13.9963 6.11985 13.9863C5.45985 13.9663 4.79985 13.9763 4.13985 13.9763C3.81985 13.9763 3.50985 13.9763 3.11985 13.9763C4.18985 15.7263 5.60985 16.8963 7.42985 17.5363H7.41985ZM8.45985 5.96632H11.5699C11.2499 4.57632 10.7799 3.28632 10.0099 2.04632C9.23985 3.28632 8.77985 4.57632 8.45985 5.96632ZM18.8499 15.1563C17.0599 14.3263 15.2599 13.5163 13.4699 12.7063C13.2299 12.5963 12.9499 12.5363 12.8099 12.7863C12.7099 12.9563 12.6799 13.2463 12.7599 13.4263C13.5499 15.2263 14.3699 17.0263 15.1999 18.8063C15.2799 18.9763 15.5299 19.1663 15.7099 19.1863C15.8699 19.1963 16.0999 18.9963 16.1899 18.8363C16.4599 18.3663 16.6699 17.8563 16.9399 17.3863C17.0499 17.1963 17.2299 17.0163 17.4099 16.9063C17.8899 16.6263 18.4099 16.4163 18.8999 16.1463C19.0599 16.0563 19.1699 15.8763 19.3799 15.6663C19.1599 15.4563 19.0299 15.2463 18.8499 15.1663V15.1563Z" fill="white"></path>
                                </svg>